<?xml version="1.0" encoding="UTF-8"?>
<svg id="Layer_2" data-name="Layer 2" xmlns="http://www.w3.org/2000/svg" viewBox="0 0 511.49 511.49">
  <defs>
    <style>
      .cls-1 {
        fill: #4d4d4d;
      }

      .cls-1, .cls-2 {
        stroke-width: 0px;
      }

      .cls-2 {
        fill: #fff;
      }
    </style>
  </defs>
  <g id="Layer_1-2" data-name="Layer 1">
    <g>
      <rect class="cls-1" x="0" y="0" width="511.49" height="511.49" rx="255.75" ry="255.75"/>
      <g>
        <path class="cls-2" d="m210.72,97.52c4.53,7.23-19.99,12.69-41.74,26.47-22.35,14.16-42.09,36.44-46.75,29.01-9.19-14.66,1.27-40.87,25.7-56.19,24.44-15.32,53.6-13.96,62.79.7Z"/>
        <path class="cls-2" d="m300.77,97.52c-4.54,7.23,19.98,12.69,41.74,26.47,22.35,14.16,42.09,36.44,46.75,29.01,9.19-14.66-1.27-40.87-25.7-56.19-24.44-15.32-53.6-13.96-62.79.7Z"/>
        <path class="cls-2" d="m266.51,111.95v-10.18c0-4.2-3.4-7.6-7.6-7.6h-6.33c-4.19,0-7.6,3.4-7.6,7.6v10.18c-77.83,5.52-139.27,70.37-139.27,149.61,0,52.58,27.08,98.82,68.03,125.61l-15.87,19.93c-3.92,4.92-3.1,12.09,1.83,16.01,2.09,1.67,4.6,2.48,7.08,2.48,3.36,0,6.67-1.46,8.92-4.3l18.3-23c18.84,8.52,39.72,13.29,61.73,13.29s42.89-4.78,61.73-13.29l18.3,23c2.25,2.84,5.57,4.3,8.92,4.3,2.48,0,4.99-.81,7.09-2.48,4.93-3.92,5.74-11.09,1.82-16.01l-15.87-19.93c40.95-26.78,68.03-73.02,68.03-125.61,0-79.24-61.44-144.09-139.27-149.61Zm-10.76,286.23c-75.46,0-136.64-61.17-136.64-136.63s61.17-136.63,136.64-136.63,136.64,61.17,136.64,136.63-61.17,136.63-136.64,136.63Z"/>
        <path class="cls-2" d="m247.01,332.81v-4.87c0-4.12-3.88-7.47-8.6-8.04-6.71-.79-13.17-2.35-18.6-4.42-4.37-1.66-6.3-6.55-4.81-10.18,1.51-3.62,5.94-4.66,10.26-2.94,7.22,2.86,15.94,4.8,25.13,4.8,16.12,0,27.01-8.02,27.01-19.19s-8.84-17.42-25.64-23.31c-23.14-7.83-37.44-16.83-37.44-33.87,0-13.97,9.87-25.04,25.89-29.74,4.52-1.33,8.38-5.13,8.38-9.25v-4.87c0-4.11,3.15-7.45,7.05-7.45s7.03,3.34,7.03,7.45v4.09c0,4.12,3.87,7.51,8.58,8.11,5.09.65,9.42,1.71,13.16,2.96,4.44,1.49,6.48,6.14,4.91,9.71-1.55,3.57-6.13,4.71-10.57,3.17-5.11-1.77-12.02-3.37-20.86-3.37-17.48,0-24.05,9.01-24.05,16.84,0,10.18,8.41,15.27,28.14,22.32,23.39,8.23,35.19,18.41,35.19,35.84,0,13.5-9.51,26.27-27.47,31.51-4.52,1.32-8.39,5.12-8.39,9.24v5.46c0,4.12-3.19,7.46-7.16,7.46s-7.14-3.34-7.14-7.46Z"/>
      </g>
    </g>
  </g>
</svg>